<?xml version="1.0" encoding="iso-8859-1"?>

<!DOCTYPE svg PUBLIC "-//W3C//DTD SVG 1.1//EN" "http://www.w3.org/Graphics/SVG/1.1/DTD/svg11.dtd">
<!-- Uploaded to: SVG Repo, www.svgrepo.com, Generator: SVG Repo Mixer Tools -->
<svg version="1.1" id="_x34_" xmlns="http://www.w3.org/2000/svg" xmlns:xlink="http://www.w3.org/1999/xlink" 
	 viewBox="0 0 512 512"  xml:space="preserve">
<g>
	<polygon style="fill:#C4C4C4;" points="511.402,173.657 506.53,176.734 502.513,179.212 467.816,201.091 458.244,207.073 
		341.333,280.399 334.923,284.416 300.91,305.781 299.115,306.891 297.235,308.089 294.5,309.798 268.605,326.035 266.213,327.659 
		265.956,327.745 265.7,327.916 256.043,333.983 255.701,334.154 247.753,329.198 246.3,328.257 246.044,328.086 235.019,321.164 
		216.901,309.798 214.85,308.516 210.492,305.781 176.478,284.416 170.068,280.399 66.66,215.448 54.439,207.842 44.696,201.689 
		0.598,173.999 0,173.657 0.598,173.316 1.026,173.059 44.696,145.627 54.439,139.473 116.655,100.417 122.979,96.401 
		156.993,75.035 163.317,71.104 249.548,16.921 261.854,16.921 340.051,66.062 401.327,104.519 458.244,140.242 464.74,144.344 
		467.816,146.31 490.036,160.24 510.974,173.402 	"/>
	<path style="fill:#5EB2B2;" d="M467.816,16.066v383.809c0,0.256,0,0.598-0.086,0.853c-0.171,4.017-2.051,7.522-4.871,10.256
		c-3.247,2.991-7.692,4.871-12.649,4.871H62.302c-4.957,0-9.401-1.88-12.649-4.871c-3.076-2.905-4.957-6.751-4.957-11.109V16.066
		C44.696,7.178,52.645,0,62.302,0h387.909C459.954,0,467.816,7.178,467.816,16.066z"/>
	<g>
		<g>
			<rect x="110.759" y="75.071" style="fill:#86CCCA;" width="190.508" height="25.378"/>
			<rect x="110.759" y="71.064" style="fill:#52A6A3;" width="190.508" height="25.378"/>
		</g>
		<g>
			<rect x="110.759" y="214.653" style="fill:#86CCCA;" width="289.501" height="25.378"/>
			<rect x="110.759" y="210.646" style="fill:#52A6A3;" width="289.501" height="25.378"/>
		</g>
		<g>
			<rect x="110.759" y="284.444" style="fill:#86CCCA;" width="289.501" height="25.378"/>
			<rect x="110.759" y="280.437" style="fill:#52A6A3;" width="289.501" height="25.378"/>
		</g>
		<g>
			<rect x="110.759" y="144.862" style="fill:#86CCCA;" width="289.501" height="25.378"/>
			<rect x="110.759" y="140.855" style="fill:#52A6A3;" width="289.501" height="25.378"/>
		</g>
	</g>
	<polygon style="fill:#FFFFFF;" points="256.299,322.104 253.308,323.813 246.044,328.086 195.45,357.656 188.357,361.844 
		108.451,408.506 95.802,415.855 12.392,464.569 5.982,468.244 0.598,471.405 0.598,172.803 1.026,173.059 44.696,198.527 
		71.446,214.166 110.758,237.156 115.8,240.061 184.853,280.399 191.776,284.416 223.652,303.046 228.353,305.781 235.19,309.798 
		244.078,314.925 246.642,316.464 248.009,317.233 256.043,321.933 	"/>
	<polygon style="fill:#E3E2E2;" points="511.972,172.795 511.972,471.458 511.887,471.384 511.459,471.09 511.117,470.87 
		511.031,470.87 263.706,326.496 259.348,323.925 256.271,322.089 266.014,316.435 266.271,316.288 266.527,316.141 275.5,310.927 	
		"/>
	<circle style="opacity:0.68;fill:#EEF3CA;" cx="377.114" cy="75.071" r="38.186"/>
	<path style="fill:#757575;" d="M511.972,425.222v45.808h-0.513l-7.35,0.342H27.662l-0.341-7.094
		c8.632-5.896,20.082-13.845,27.518-18.887l1.024-0.684l24.956-17.178l38.97-26.92l11.281-7.777l118.365-81.615l7.947-5.556
		c1.88-1.195,4.016-2.222,6.324-2.904c2.735-0.941,5.726-1.539,8.717-1.795c1.026-0.086,1.965-0.171,2.991-0.086
		c1.025-0.171,2.052-0.171,3.077-0.171c2.735-0.085,5.385,0.171,7.948,0.683c2.734,0.513,5.213,1.369,7.435,2.564l89.735,49.91
		l44.354,24.697l11.538,6.41l41.79,23.245l27.518,15.298c0.77,0.428,1.624,0.855,2.479,1.368
		C511.459,424.966,511.716,425.137,511.972,425.222z"/>
	<path style="fill:#EAEAEA;" d="M512,441.408v29.997H0.598v-29.997c8.973-5.469,20.767-12.905,28.459-17.519l1.025-0.683
		l19.57-12.221l6.153-3.761l40.252-24.954l11.623-7.265l105.032-65.206l2.137-1.282l4.359-2.734l4.444-2.735l6.154-3.845
		l8.204-5.129c4.273-2.563,9.828-3.845,15.297-3.931c1.025-0.086,1.965-0.086,2.991,0c1.026-0.086,2.051-0.086,3.077,0
		c2.393,0,4.7,0.257,6.922,0.77c3.077,0.598,5.897,1.709,8.29,3.161l11.879,7.351l2.564,1.623l4.444,2.735l3.76,2.308l2.735,1.709
		l61.874,38.458l43.072,26.749l11.195,7.008l40.68,25.211l6.068,3.761l20.682,12.905c0.769,0.427,1.538,0.854,2.393,1.368
		c5.47,3.503,12.478,7.862,19.058,11.878C507.385,438.673,509.778,440.127,512,441.408z"/>
	<path style="opacity:0.2;fill:#ABDBDF;" d="M467.816,16.066v4.273c0-8.887-7.862-16.066-17.605-16.066H62.302
		c-9.657,0-17.605,7.178-17.605,16.066v-4.273C44.696,7.178,52.645,0,62.302,0h387.909C459.954,0,467.816,7.178,467.816,16.066z"/>
</g>
</svg>