<svg version="1" xmlns="http://www.w3.org/2000/svg" width="1365.333" height="1365.333" viewBox="0 0 1024.000000 1024.000000"><path d="M501.5 1.4c-10.9 3.7-47.3 21.1-70 33.5-56.5 31-106.1 65.6-155.1 108.3-16.7 14.5-59.9 57.7-74.4 74.3-68.7 78.8-120.1 166.2-154.3 262.6-21.5 60.3-36.2 127.1-43.1 195.4C1.1 710.4.6 724 .5 787v63.5l2.6 5.5c3.8 8.1 7.6 12 20.7 20.8 61.2 41.4 149.3 82.4 230 107.3 172.5 53.1 343.9 53.1 516.4 0 80.7-24.9 168.8-65.9 230-107.3 13.1-8.8 16.9-12.7 20.7-20.8l2.6-5.5V787c-.1-63-.6-76.6-4.1-111.5-17.5-174-83.9-327.9-197.4-458-14.8-17-56.8-58.9-74-73.9C681.8 85.7 608.1 38.5 532.5 5.5c-9.6-4.2-12-4.9-19-5.2-4.9-.2-9.5.2-12 1.1zm23.7 81.5c28.5 13.4 65.9 35 95.3 54.9 44.3 30 81.4 60.9 119.1 99.4 96.5 98.6 162.1 219.3 191.9 353.1 3.4 15.4 9.5 47.1 9.5 49.4 0 .2-19.4.2-43.2.1l-43.1-.3L771.3 519c-45.9-66.3-85.1-122.2-87.1-124.3-2-2.1-6.6-5.2-10.2-7-5.8-2.9-7.3-3.2-15.5-3.2-7.6 0-9.9.4-14.6 2.7-3.1 1.4-7.4 4.2-9.6 6.2-2.2 2-13.9 17.8-25.9 35.1-12 17.4-22.1 31.4-22.6 31.3-.4-.2-26.9-38.6-58.9-85.3-31.9-46.8-60.1-87.1-62.6-89.7-6.8-7-14.7-10.2-25.3-10.2-7.5-.1-9.3.3-15.2 3.1-3.6 1.7-8.3 4.9-10.5 7-2.1 2.1-57.8 82.9-123.8 179.5l-120 175.7h-43.2c-23.8.1-43.3 0-43.3-.2 0-2.3 6.1-34 9.5-49.4 29.8-133.8 95.4-254.5 191.9-353.1C339.9 180.5 401.5 134.3 471 97c16.7-9 38.8-19.8 40.6-19.9.7-.1 6.8 2.5 13.6 5.8zm-34.3 369c27.6 40.4 50 73.7 49.9 74.1-.2.4-17.8 26.2-39.3 57.3l-39 56.6H360.3l-102.2.1 90.2-131.9c67.4-98.6 90.5-131.6 91.3-130.8.6.7 23.7 34.2 51.3 74.6zm220.8 110.3c29 41.9 53 76.6 53.1 77 .2.4-47.6.8-106.3.8-66.5 0-106.5-.4-106.3-.9.6-2 105.3-153.1 106-153.1.4 0 24.4 34.3 53.5 76.2zM449.1 720.4c-7.1 13.9-10.1 26.9-10.1 43.7 0 16.8 2.8 28.6 10.2 43.6 7.8 15.8 22.5 31.1 38.1 39.7 3.4 1.8 14.8 7.1 25.2 11.7 14.8 6.5 19.9 9.3 23 12.4 6.2 6.1 8.2 15.5 5 23.2-.8 2-8.3 15.5-16.6 29.9l-15 26.4h-6.2c-12.3 0-45.6-2.1-65.1-4-118.4-11.9-241.2-52.7-348.5-115.9l-16.4-9.6.7-50c.4-27.5.9-51.9 1.2-54.3l.6-4.2H452.9l-3.8 7.4zm500.3-3.2c.3 2.4.8 26.8 1.2 54.3l.7 50-16.4 9.7c-83.6 49.3-179.7 85.9-274.7 104.8-20.3 4-62.1 10.4-62.9 9.7-.2-.3 2.3-5.6 5.6-11.8 3.3-6.3 7.2-15.5 8.7-20.4 2.6-8.4 2.8-10.2 2.8-26.5 0-16.1-.3-18.2-2.7-26.3-5-16.3-14-31.3-25.6-42.6-8.6-8.5-20.7-15.7-42.5-25.4-11.1-4.9-21.6-10-23.5-11.4-7-5.3-10-17.5-6.3-25.6.9-2.1 8.9-12.6 17.7-23.2l16-19.4h200.6l200.7-.1.6 4.2z"/></svg>